PathFileType	4	(X/Y/Z)	C:/Users/beibeiliu/ov580/test_trc/capture2\sequence.12_training_dense_right.trc
DataRate	CameraRate	NumFrames	NumMarkers	Units	OrigDataRate	OrigDataStartFrame	OrigNumFrames
120	120	10	19	mm	120	1	369
Frame#	Time	ThumbCMC			ThumbMCP			ThumbIP			ThumbTip			IndexMCP			IndexPIP			IndexTip			MiddleMCP			MiddlePIP			MiddleTip			RingMCP			RingPIP			RingTip			PinkyMCP			PinkyPIP			PinkyTip			BackHand1			BackHand2			BackHand3	
		X0	Y0	Z0	X1	Y1	Z1	X2	Y2	Z2	X3	Y3	Z3	X4	Y4	Z4	X5	Y5	Z5	X6	Y6	Z6	X7	Y7	Z7	X8	Y8	Z8	X9	Y9	Z9	X10	Y10	Z10	X11	Y11	Z11	X12	Y12	Z12	X13	Y13	Z13	X14	Y14	Z14	X15	Y15	Z15	X16	Y16	Z16	X17	Y17	Z17	X18	Y18	Z18	
0	0	146.115	18.4371	9.4586	121.872	4.75067	-7.23011	108.285	-3.31232	-30.045	100.121	-10.2773	-49.9435	157.644	31.6606	-63.5516	151.012	25.6871	-91.7043	145.938	22.6713	-112.412	188.46	30.5273	-68.1682	186.626	26.7495	-95.3359	191.205	18.4615	-124.06	205.851	21.62	-63.9367	210.336	16.936	-89.9338	215.342	9.21341	-116.493	223.726	9.4878	-50.758	234.401	4.0821	-69.6715	247.817	3.38496	-86.7583	204.384	30.9757	-14.0254	203.035	35.2501	16.9892	173.518	39.5757	0.629072	
1	0.00833333	143.713	16.9247	5.05825	126	3.19411	-6.11771	109.633	-4.3494	-31.142	96.7492	-11.144	-46.2262	157.698	28.9762	-63.1531	149.061	25.3969	-90.6531	149.236	19.1465	-115.933	184.772	28.4201	-67.2309	186.201	23.5728	-98.9009	191.047	16.4523	-125.544	203.856	20.3449	-65.9564	214.503	14.03	-86.1578	214.089	7.28376	-115.599	222.837	6.90423	-49.7708	234.884	1.52813	-70.1987	244.806	0.901856	-90.8736	203.959	28.5359	-13.6475	203.076	32.3124	16.8242	173.103	38.8221	-2.34849	
2	0.0166667	142.976	15.4327	10.9538	126.187	0.90241	-8.07099	108.231	-5.64545	-29.4499	99.2937	-11.9395	-47.5905	158.056	26.9952	-63.1116	148.945	23.8645	-86.3383	150.355	18.0355	-112.443	185.295	26.1815	-71.8917	186.106	21.5108	-97.846	191.783	13.7514	-126.165	206.476	17.378	-63.8989	210.315	12.4225	-85.9025	214.467	4.15674	-113.636	223.531	6.08511	-50.6607	233.982	-1.45092	-67.2637	244.424	-1.10971	-86.3562	204.956	26.6517	-14.3089	206.387	30.6727	14.5737	175.207	36.9783	-0.341762	
3	0.025	141.698	13.6973	8.71036	123.734	0.00574834	-4.55367	108.532	-7.05485	-30.2892	96.4369	-13.8475	-47.2056	155.949	25.3876	-60.4256	148.358	20.608	-89.8931	151.096	15.2489	-113.564	188.82	23.4867	-68.9026	189.775	18.1491	-97.9013	193.63	10.6029	-123.299	204.984	16.5749	-65.1194	211.745	9.935	-89.3553	212.881	1.44791	-113.753	222.885	3.97752	-48.8486	232.12	-2.87684	-65.2032	246.783	-4.08335	-89.1758	202.219	26.9177	-14.0217	204.387	27.0116	17.8029	171.293	34.5505	-3.36693	
4	0.0333333	139.878	12.3227	8.02717	124.041	-2.1705	-5.1739	107.49	-8.64485	-28.1696	96.436	-15.9991	-47.4376	156.562	23.2291	-63.7993	148.273	19.6135	-86.4438	151.184	12.2526	-112.085	183.261	22.1006	-65.2516	186.77	15.4002	-97.1835	189.742	9.47933	-121.349	203.11	12.64	-59.6492	208.272	7.11283	-89.3028	212.875	-0.911777	-114.558	222.814	0.395656	-45.2517	233.318	-4.97578	-68.806	245.86	-7.96514	-88.6924	201.83	23.56	-10.126	206.664	26.1453	18.3762	175.708	31.4371	1.23333	
5	0.0416667	140.104	8.82395	7.25162	125.588	-5.52209	-5.74038	109.642	-12.0161	-23.9358	97.4579	-18.2839	-43.8039	153.356	19.7253	-61.6586	151.678	14.8878	-89.0337	144.446	9.27245	-114.191	185.171	18.3126	-65.1904	188.52	12.8511	-93.5422	188.311	5.56692	-119.611	202.157	10.0535	-63.0927	210.948	4.02078	-85.628	210.278	-4.07166	-110.246	224.421	-2.82784	-48.1576	229.994	-7.54754	-65.5555	247.368	-9.87429	-88.7509	205.509	19.0749	-12.6048	203.411	22.6593	15.5687	174.991	28.5761	-2.62227	
6	0.05	141.508	5.52592	8.28995	121.202	-6.83224	-3.79748	103.689	-13.7729	-25.7797	92.6866	-20.9498	-42.0379	153.616	16.5392	-62.0219	145.412	12.1589	-88.5342	148.824	5.13099	-113.193	181.606	16.6078	-66.4428	185.03	10.1228	-93.7598	187.764	1.1505	-121.45	205.201	6.96661	-62.3737	210.77	0.509244	-85.589	212.566	-7.73072	-109.959	220.038	-5.012	-46.112	232.817	-12.5894	-66.6299	245.585	-13.6651	-89.1783	201.095	18.6069	-9.93596	200.051	20.6755	17.8288	171.645	25.936	-1.89725	
7	0.0583333	139.436	3.90571	12.8227	120.711	-9.1263	-3.99208	104.149	-15.8753	-24.5617	91.8517	-22.4025	-44.0878	150.74	15.212	-61.9067	147.359	8.26019	-90.1322	145.155	2.66486	-115.145	182.844	13.1638	-67.7234	184.423	7.22506	-94.9652	189.859	-2.83778	-124.856	204.64	3.49288	-62.6956	210.528	-2.71293	-86.4239	208.586	-9.03684	-109.906	219.219	-7.02477	-44.3804	228.061	-13.4191	-63.7468	244.485	-14.7409	-85.6872	199.889	17.4772	-14.0603	199.858	19.5494	19.9171	168.487	25.3252	1.19699	
8	0.0666667	141.228	1.79858	8.09217	120.091	-10.7257	-3.22409	105.979	-17.2448	-22.9727	92.4689	-24.2656	-41.8023	152.194	12.7804	-62.8098	145.806	8.56898	-88.1281	146.595	2.20664	-110.527	182.967	11.7611	-65.8822	184.832	4.67276	-96.4591	186.278	-2.47039	-118.677	200.495	3.26301	-58.566	206.317	-3.45293	-83.284	209.542	-11.9761	-112.12	220.344	-8.99069	-45.3002	226.986	-15.7898	-66.1702	243.256	-19.1089	-82.5991	203.587	14.9141	-11.7411	202.548	16.6504	17.4412	171.41	22.1924	2.51088	
9	0.075	138.509	2.55769	13.4664	119.047	-12.197	-3.27708	104.256	-18.0777	-22.6915	92.1525	-25.0791	-43.8088	153.579	12.3147	-62.3834	143.903	7.84192	-83.8848	144.129	-0.388625	-112.369	179.179	11.9974	-68.2848	183.345	4.20744	-95.7367	184.425	-2.23332	-119.25	200.829	2.2412	-58.235	204.576	-3.91716	-82.9012	207.213	-12.0678	-109.953	221.818	-10.5791	-44.6874	227.47	-16.8123	-64.9006	238.801	-17.5825	-85.1831	197.473	12.6347	-9.01581	201.61	15.1539	16.7394	172.798	22.8292	3.53853	
